<svg width="29" height="31" viewBox="0 0 29 31" fill="none" xmlns="http://www.w3.org/2000/svg">
<path d="M19.4006 6.22443H21.9574V18.267C22.0256 19.8523 22.1193 20.7642 22.2386 21.0028C22.5455 21.6335 23.1506 21.9489 24.054 21.9489C24.7358 21.9489 25.2131 21.804 25.4858 21.5142C25.7756 21.2074 26.0057 20.6193 26.1761 19.75C26.483 18.0966 26.6364 15.7614 26.6364 12.7443C26.6364 9.89773 26.4744 7.80114 26.1506 6.45455C25.8437 5.09091 25.2898 4.13636 24.4886 3.59091C23.8239 3.13068 22.8097 2.81534 21.446 2.64489C20.0824 2.45739 17.9432 2.36364 15.0284 2.36364C11.5341 2.36364 8.99432 2.5 7.40909 2.77273C5.84091 3.02841 4.75 3.50568 4.13636 4.20455C2.92614 5.53409 2.32102 9.03693 2.32102 14.7131C2.32102 18.3267 2.51705 21.054 2.90909 22.8949C3.30114 24.7188 3.95739 25.9716 4.87784 26.6534C5.71307 27.267 6.94886 27.6932 8.58523 27.9318C10.2216 28.1705 12.7614 28.2898 16.2045 28.2898C19.2386 28.2898 21.3182 28.1023 22.4432 27.7273C22.9375 27.5739 23.3892 27.1733 23.7983 26.5256L25.5369 27.7784C24.9062 28.8864 23.9602 29.6108 22.6989 29.9517C21.4545 30.2926 19.1364 30.4631 15.7443 30.4631C10.4432 30.4631 6.71023 29.9432 4.54545 28.9034C2.67045 28 1.46023 26.3892 0.914773 24.071C0.369318 21.8381 0.0965909 18.9659 0.0965909 15.4545C0.0965909 11.7045 0.335227 8.78125 0.8125 6.68466C1.28977 4.57102 2.05682 3.07955 3.11364 2.21023C4 1.47727 5.41477 0.948864 7.35795 0.625C9.31818 0.284091 11.9773 0.113637 15.3352 0.113637C18.642 0.113637 21.1648 0.309659 22.9034 0.701705C24.642 1.0767 25.929 1.72443 26.7642 2.64489C28.1449 4.16193 28.8352 7.27273 28.8352 11.9773C28.8352 16.0682 28.5455 19.1193 27.9659 21.1307C27.6761 22.1364 27.233 22.8608 26.6364 23.304C26.0568 23.7472 25.2386 23.9688 24.1818 23.9688C21.7273 23.9688 20.304 23.0313 19.9119 21.1563H19.8352C19.4091 22.196 18.6932 22.9545 17.6875 23.4318C16.6989 23.892 15.3267 24.1222 13.571 24.1222C11.0824 24.1222 9.35227 23.483 8.38068 22.2045C7.40909 20.9091 6.9233 18.6165 6.9233 15.3267C6.9233 13.3153 7.03409 11.7727 7.25568 10.6989C7.47727 9.60795 7.86932 8.72159 8.43182 8.03977C9.42045 6.82955 11.1761 6.22443 13.6989 6.22443C15.3693 6.22443 16.6222 6.40341 17.4574 6.76136C18.2926 7.11932 18.9148 7.74148 19.3239 8.62784H19.4006V6.22443ZM14.4148 8.34659C12.4034 8.34659 11.0994 8.7642 10.5028 9.59943C9.9233 10.4176 9.63352 12.2415 9.63352 15.071C9.63352 18.1051 10.0085 20.0739 10.7585 20.9773C11.304 21.642 12.4631 21.9744 14.2358 21.9744C15.6335 21.9744 16.6818 21.821 17.3807 21.5142C18.0795 21.2074 18.5739 20.6705 18.8636 19.9034C19.2045 18.983 19.375 16.9545 19.375 13.8182C19.375 11.7216 19.017 10.2898 18.3011 9.52273C17.6023 8.73864 16.3068 8.34659 14.4148 8.34659Z" fill="#0E5EBB"/>
</svg>
